name rise34.3697peak60.0498fall86.3158.mot
datacolumns 19
datarows 27
range 6.80664400000000 6.84997100000000
endheader
time	ground_force1_vx	ground_force1_vy	ground_force1_vz	ground_force1_px	ground_force1_py	ground_force1_pz	ground_force2_vx	ground_force2_vy	ground_force2_vz	ground_force2_px	ground_force2_py	ground_force2_pz	ground_torque1_x	ground_torque1_y	ground_torque1_z	ground_torque2_x	ground_torque2_y	ground_torque2_z	
6.80664400000000	62.92879200000000	758.80160799999999	56.71336700000000	0.44568600000000	0.00000000000000	0.11268100000000	-0.85108000000000	6.83825100000000	0.43146100000000	0.00000000000000	0.00000000000000	0.00000000000000	0.00000000000000	35.57930700000000	0.00000000000000	0.00000000000000	0.02847300000000	0.00000000000000	
6.80830700000000	62.37158300000000	763.03676199999995	57.09198800000000	0.44437800000000	0.00000000000000	0.11270100000000	-0.32460600000000	3.34924400000000	0.25923400000000	0.00000000000000	0.00000000000000	0.00000000000000	0.00000000000000	35.88288600000000	0.00000000000000	0.00000000000000	0.03631400000000	0.00000000000000	
6.80997500000000	61.80914600000000	767.14389300000005	57.46794400000000	0.44308600000000	0.00000000000000	0.11272000000000	0.00000000000000	0.00000000000000	0.00000000000000	0.00000000000000	0.00000000000000	0.00000000000000	0.00000000000000	36.18599600000000	0.00000000000000	0.00000000000000	0.00000000000000	0.00000000000000	
6.81163800000000	61.24223400000000	771.11941000000002	57.84026600000000	0.44181000000000	0.00000000000000	0.11274000000000	0.00000000000000	0.00000000000000	0.00000000000000	0.00000000000000	0.00000000000000	0.00000000000000	0.00000000000000	36.48781500000000	0.00000000000000	0.00000000000000	0.00000000000000	0.00000000000000	
6.81330700000000	60.67155000000000	774.95979899999998	58.20793700000000	0.44055000000000	0.00000000000000	0.11275900000000	0.00000000000000	0.00000000000000	0.00000000000000	0.00000000000000	0.00000000000000	0.00000000000000	0.00000000000000	36.78747900000000	0.00000000000000	0.00000000000000	0.00000000000000	0.00000000000000	
6.81497400000000	60.09774100000000	778.66163600000004	58.56989300000000	0.43930800000000	0.00000000000000	0.11277800000000	0.00000000000000	0.00000000000000	0.00000000000000	0.00000000000000	0.00000000000000	0.00000000000000	0.00000000000000	37.08409400000000	0.00000000000000	0.00000000000000	0.00000000000000	0.00000000000000	
6.81663800000000	59.52140700000000	782.22160299999996	58.92503500000000	0.43808500000000	0.00000000000000	0.11279700000000	0.00000000000000	0.00000000000000	0.00000000000000	0.00000000000000	0.00000000000000	0.00000000000000	0.00000000000000	37.37673600000000	0.00000000000000	0.00000000000000	0.00000000000000	0.00000000000000	
6.81830500000000	58.94310000000000	785.63650500000006	59.27223200000000	0.43688000000000	0.00000000000000	0.11281500000000	0.00000000000000	0.00000000000000	0.00000000000000	0.00000000000000	0.00000000000000	0.00000000000000	0.00000000000000	37.66445900000000	0.00000000000000	0.00000000000000	0.00000000000000	0.00000000000000	
6.81997300000000	58.36332200000000	788.90328499999998	59.61033200000000	0.43569500000000	0.00000000000000	0.11283300000000	0.00000000000000	0.00000000000000	0.00000000000000	0.00000000000000	0.00000000000000	0.00000000000000	0.00000000000000	37.94630400000000	0.00000000000000	0.00000000000000	0.00000000000000	0.00000000000000	
6.82164500000000	57.78253100000000	792.01903500000003	59.93816900000000	0.43452900000000	0.00000000000000	0.11284900000000	0.00000000000000	0.00000000000000	0.00000000000000	0.00000000000000	0.00000000000000	0.00000000000000	0.00000000000000	38.22130000000000	0.00000000000000	0.00000000000000	0.00000000000000	0.00000000000000	
6.82330900000000	57.20114100000000	794.98101399999996	60.25457200000000	0.43338400000000	0.00000000000000	0.11286500000000	0.00000000000000	0.00000000000000	0.00000000000000	0.00000000000000	0.00000000000000	0.00000000000000	0.00000000000000	38.48847300000000	0.00000000000000	0.00000000000000	0.00000000000000	0.00000000000000	
6.82497400000000	56.61952400000000	797.78666199999998	60.55837100000000	0.43225900000000	0.00000000000000	0.11287900000000	0.00000000000000	0.00000000000000	0.00000000000000	0.00000000000000	0.00000000000000	0.00000000000000	0.00000000000000	38.74685200000000	0.00000000000000	0.00000000000000	0.00000000000000	0.00000000000000	
6.82663700000000	56.03801300000000	800.43360900000005	60.84840600000000	0.43115400000000	0.00000000000000	0.11289300000000	0.00000000000000	0.00000000000000	0.00000000000000	0.00000000000000	0.00000000000000	0.00000000000000	0.00000000000000	38.99547400000000	0.00000000000000	0.00000000000000	0.00000000000000	0.00000000000000	
6.82831100000000	55.45690100000000	802.91969500000005	61.12353500000000	0.43007000000000	0.00000000000000	0.11290500000000	0.00000000000000	0.00000000000000	0.00000000000000	0.00000000000000	0.00000000000000	0.00000000000000	0.00000000000000	39.23339100000000	0.00000000000000	0.00000000000000	0.00000000000000	0.00000000000000	
6.82997200000000	54.87645000000000	805.24297400000000	61.38264200000000	0.42900700000000	0.00000000000000	0.11291500000000	0.00000000000000	0.00000000000000	0.00000000000000	0.00000000000000	0.00000000000000	0.00000000000000	0.00000000000000	39.45967200000000	0.00000000000000	0.00000000000000	0.00000000000000	0.00000000000000	
6.83164000000000	54.29688700000000	807.40173300000004	61.62464300000000	0.42796400000000	0.00000000000000	0.11292400000000	0.00000000000000	0.00000000000000	0.00000000000000	0.00000000000000	0.00000000000000	0.00000000000000	0.00000000000000	39.67341600000000	0.00000000000000	0.00000000000000	0.00000000000000	0.00000000000000	
6.83330800000000	53.71841000000000	809.39449600000000	61.84849300000000	0.42694100000000	0.00000000000000	0.11293100000000	0.00000000000000	0.00000000000000	0.00000000000000	0.00000000000000	0.00000000000000	0.00000000000000	0.00000000000000	39.87374700000000	0.00000000000000	0.00000000000000	0.00000000000000	0.00000000000000	
6.83497300000000	53.14118700000000	811.22004000000004	62.05319600000000	0.42593900000000	0.00000000000000	0.11293700000000	0.00000000000000	0.00000000000000	0.00000000000000	0.00000000000000	0.00000000000000	0.00000000000000	0.00000000000000	40.05982900000000	0.00000000000000	0.00000000000000	0.00000000000000	0.00000000000000	
6.83663900000000	52.56536300000000	812.87739699999997	62.23780700000000	0.42495700000000	0.00000000000000	0.11294100000000	0.00000000000000	0.00000000000000	0.00000000000000	0.00000000000000	0.00000000000000	0.00000000000000	0.00000000000000	40.23086400000000	0.00000000000000	0.00000000000000	0.00000000000000	0.00000000000000	
6.83830600000000	51.99106200000000	814.36586899999998	62.40144200000000	0.42399400000000	0.00000000000000	0.11294300000000	0.00000000000000	0.00000000000000	0.00000000000000	0.00000000000000	0.00000000000000	0.00000000000000	0.00000000000000	40.38609900000000	0.00000000000000	0.00000000000000	0.00000000000000	0.00000000000000	
6.83997200000000	51.41838500000000	815.68502899999999	62.54327900000000	0.42305000000000	0.00000000000000	0.11294300000000	0.00000000000000	0.00000000000000	0.00000000000000	0.00000000000000	0.00000000000000	0.00000000000000	0.00000000000000	40.52482800000000	0.00000000000000	0.00000000000000	0.00000000000000	0.00000000000000	
6.84164400000000	50.84741700000000	816.83473100000003	62.66256900000000	0.42212400000000	0.00000000000000	0.11294100000000	0.00000000000000	0.00000000000000	0.00000000000000	0.00000000000000	0.00000000000000	0.00000000000000	0.00000000000000	40.64640100000000	0.00000000000000	0.00000000000000	0.00000000000000	0.00000000000000	
6.84331600000000	50.27822800000000	817.81511300000000	62.75863600000000	0.42121700000000	0.00000000000000	0.11293700000000	0.00000000000000	0.00000000000000	0.00000000000000	0.00000000000000	0.00000000000000	0.00000000000000	0.00000000000000	40.75022100000000	0.00000000000000	0.00000000000000	0.00000000000000	0.00000000000000	
6.84497300000000	49.71087600000000	818.62660000000005	62.83088200000000	0.42032700000000	0.00000000000000	0.11293100000000	0.00000000000000	0.00000000000000	0.00000000000000	0.00000000000000	0.00000000000000	0.00000000000000	0.00000000000000	40.83575000000000	0.00000000000000	0.00000000000000	0.00000000000000	0.00000000000000	
6.84664500000000	49.14540800000000	819.26990799999999	62.87879200000000	0.41945400000000	0.00000000000000	0.11292200000000	0.00000000000000	0.00000000000000	0.00000000000000	0.00000000000000	0.00000000000000	0.00000000000000	0.00000000000000	40.90251300000000	0.00000000000000	0.00000000000000	0.00000000000000	0.00000000000000	
6.84830900000000	48.58186200000000	819.74604499999998	62.90193800000000	0.41859600000000	0.00000000000000	0.11291200000000	0.00000000000000	0.00000000000000	0.00000000000000	0.00000000000000	0.00000000000000	0.00000000000000	0.00000000000000	40.95009900000000	0.00000000000000	0.00000000000000	0.00000000000000	0.00000000000000	
6.84997100000000	48.02027200000000	820.05631200000005	62.89997600000000	0.41775400000000	0.00000000000000	0.11290000000000	0.00000000000000	0.00000000000000	0.00000000000000	0.00000000000000	0.00000000000000	0.00000000000000	0.00000000000000	40.97816100000000	0.00000000000000	0.00000000000000	0.00000000000000	0.00000000000000	
